<?xml version="1.0" encoding="utf-8"?>
<!-- Generator: Adobe Illustrator 23.0.3, SVG Export Plug-In . SVG Version: 6.00 Build 0)  -->
<svg version="1.1" id="Layer_1" xmlns="http://www.w3.org/2000/svg" xmlns:xlink="http://www.w3.org/1999/xlink" x="0px" y="0px"
	 viewBox="0 0 240 68" style="enable-background:new 0 0 240 68;" xml:space="preserve">
<style type="text/css">
	.st0{fill:#00719F;}
	.st1{fill:#D65F22;}
</style>
<g>
	<g>
		<path class="st0" d="M0,0.1V67.9h240V0.1H0z M233.71,61.6H6.29V6.4h227.41V61.6z"/>
		<path class="st0" d="M19.79,51.42c1.56,0.96,3.29,1.45,5.18,1.45c1.9,0,3.62-0.47,5.18-1.39c1.56-0.93,2.81-2.19,3.74-3.79
			c0.93-1.6,1.4-3.39,1.4-5.39c0-2.07-0.51-3.82-1.53-5.24c-1.02-1.42-2.4-2.62-4.16-3.61c-0.11-0.07-0.39-0.23-0.87-0.47
			c-0.47-0.24-1.01-0.53-1.61-0.87c-0.6-0.33-1.15-0.63-1.66-0.89c-0.51-0.26-0.85-0.45-1.03-0.55c-1.3-0.7-2.19-1.44-2.68-2.21
			c-0.49-0.77-0.74-1.74-0.74-2.89c0-1.12,0.39-2.1,1.16-2.92c0.77-0.82,1.7-1.24,2.79-1.24c1.05,0,1.96,0.39,2.74,1.16
			c0.77,0.77,1.16,1.77,1.16,3l0.05,4.32c0,0.14,0.07,0.21,0.21,0.21h5.9c0.14,0,0.21-0.07,0.21-0.21v-4.32
			c0-1.93-0.46-3.68-1.39-5.24c-0.93-1.56-2.18-2.81-3.74-3.74c-1.56-0.93-3.27-1.39-5.13-1.39c-1.82,0-3.52,0.46-5.08,1.37
			c-1.56,0.91-2.82,2.15-3.76,3.71c-0.95,1.56-1.42,3.33-1.42,5.29c0,2.14,0.46,4.06,1.39,5.76c0.93,1.7,2.36,3.11,4.29,4.24
			c1.05,0.6,2.18,1.23,3.37,1.89c1.19,0.67,2.07,1.16,2.63,1.47c1.68,0.95,2.53,2.07,2.53,3.37c0,1.12-0.39,2.11-1.16,2.95
			c-0.77,0.84-1.7,1.26-2.79,1.26c-1.09,0-2.02-0.41-2.79-1.24c-0.77-0.82-1.16-1.82-1.16-2.97v-2.42c0-0.18-0.07-0.26-0.21-0.26
			h-5.9c-0.18,0-0.26,0.09-0.26,0.26v2.42c0,1.93,0.46,3.69,1.39,5.29C16.98,49.18,18.23,50.46,19.79,51.42z"/>
		<path class="st0" d="M38.17,52.34h5.95c0.14,0,0.21-0.09,0.21-0.26V36.6h7.89v15.47c0,0.18,0.09,0.26,0.26,0.26h5.89
			c0.17,0,0.26-0.09,0.26-0.26l-0.11-36.16c0-0.14-0.09-0.21-0.26-0.21h-5.84c-0.14,0-0.21,0.07-0.21,0.21v14.32h-7.89l0.05-14.32
			c0-0.14-0.09-0.21-0.26-0.21h-5.84c-0.18,0-0.26,0.07-0.26,0.21l-0.05,36.16C37.96,52.25,38.03,52.34,38.17,52.34z"/>
		<path class="st0" d="M61,52.34h5.84c0.14,0,0.23-0.09,0.26-0.26l0.58-3.84h7.16l0.58,3.84c0.03,0.18,0.12,0.26,0.26,0.26h5.84
			c0.18,0,0.25-0.09,0.21-0.26l-6.26-36.16c-0.04-0.14-0.12-0.21-0.26-0.21h-7.63c-0.14,0-0.23,0.07-0.26,0.21l-6.53,36.16
			C60.79,52.25,60.86,52.34,61,52.34z M71.11,27.81l0.21-1.95l0.32,1.95l2.16,14.79h-5.05L71.11,27.81z"/>
		<path class="st0" d="M84.45,52.34h9.42c2.03,0,3.89-0.5,5.55-1.5c1.67-1,2.99-2.34,3.97-4.03c0.98-1.68,1.47-3.54,1.47-5.58
			c0-1.47-0.28-2.88-0.84-4.21c-0.56-1.33-1.35-2.51-2.37-3.53c0.95-0.81,1.76-1.86,2.45-3.16c0.68-1.3,1.03-2.7,1.03-4.21
			c0-1.86-0.46-3.58-1.37-5.16c-0.91-1.58-2.16-2.85-3.74-3.82c-1.58-0.96-3.37-1.45-5.37-1.45H84.55c-0.14,0-0.21,0.07-0.21,0.21
			l-0.11,36.16C84.24,52.25,84.31,52.34,84.45,52.34z M90.66,21.97h4c1.12,0,2.09,0.41,2.9,1.24c0.81,0.82,1.21,1.8,1.21,2.92
			c0,1.02-0.38,1.96-1.13,2.82c-0.76,0.86-1.75,1.29-2.97,1.29h-4V21.97z M90.66,36.6h3.21c1.26,0,2.35,0.46,3.26,1.37
			c0.91,0.91,1.37,2,1.37,3.26c0,1.26-0.46,2.36-1.37,3.29c-0.91,0.93-2,1.39-3.26,1.39h-3.26L90.66,36.6z"/>
		<path class="st0" d="M107.89,52.34h9.42c2.03,0,3.89-0.5,5.55-1.5c1.67-1,2.99-2.34,3.97-4.03c0.98-1.68,1.47-3.54,1.47-5.58
			c0-1.47-0.28-2.88-0.84-4.21c-0.56-1.33-1.35-2.51-2.37-3.53c0.95-0.81,1.76-1.86,2.45-3.16c0.68-1.3,1.03-2.7,1.03-4.21
			c0-1.86-0.46-3.58-1.37-5.16c-0.91-1.58-2.16-2.85-3.74-3.82c-1.58-0.96-3.37-1.45-5.37-1.45h-10.11c-0.14,0-0.21,0.07-0.21,0.21
			l-0.11,36.16C107.68,52.25,107.75,52.34,107.89,52.34z M114.1,21.97h4c1.12,0,2.09,0.41,2.9,1.24c0.81,0.82,1.21,1.8,1.21,2.92
			c0,1.02-0.38,1.96-1.13,2.82c-0.76,0.86-1.75,1.29-2.97,1.29h-4V21.97z M114.1,36.6h3.21c1.26,0,2.35,0.46,3.26,1.37
			c0.91,0.91,1.37,2,1.37,3.26c0,1.26-0.46,2.36-1.37,3.29c-0.91,0.93-2,1.39-3.26,1.39h-3.26L114.1,36.6z"/>
		<path class="st0" d="M136.04,51.42c1.56,0.96,3.29,1.45,5.18,1.45c1.33,0,2.76-0.02,4.29-0.05c1.53-0.04,3-0.09,4.42-0.16
			c1.42-0.07,2.65-0.13,3.68-0.18c1.03-0.05,1.73-0.1,2.08-0.13c0.17-0.03,0.26-0.12,0.26-0.26v-6.53c0-0.18-0.09-0.26-0.26-0.26
			c-2.39,0.21-4.89,0.34-7.5,0.39c-2.61,0.05-4.94,0.08-6.97,0.08c-1.09,0-2.02-0.29-2.79-0.87c-0.77-0.58-1.16-1.45-1.16-2.61V25.6
			c0-1.16,0.38-2.13,1.13-2.92c0.75-0.79,1.67-1.2,2.76-1.24h3.37c1.12,0,2.05,0.4,2.79,1.21c0.74,0.81,1.11,1.79,1.11,2.95
			l-0.05,7.95c0,1.61-0.08,2.71-0.24,3.29c-0.16,0.58-0.54,0.87-1.13,0.87c-0.49,0-0.83-0.32-1.03-0.95
			c-0.19-0.63-0.29-1.7-0.29-3.21V26.5c0-0.11-0.05-0.16-0.16-0.16h-5.68c-0.14,0-0.21,0.05-0.21,0.16v6.89
			c0,2.88,0.61,5.26,1.82,7.13c1.21,1.88,2.99,2.82,5.34,2.82c1.96,0,3.53-0.44,4.68-1.32c1.16-0.88,2-2.07,2.53-3.58
			c0.53-1.51,0.79-3.19,0.79-5.05l0.05-7.63c0.03-1.89-0.39-3.65-1.29-5.26c-0.9-1.61-2.12-2.91-3.68-3.89
			c-1.56-0.98-3.34-1.47-5.34-1.47h-3.37c-1.86,0-3.57,0.48-5.13,1.45c-1.56,0.97-2.81,2.23-3.74,3.79
			c-0.93,1.56-1.39,3.31-1.39,5.24l-0.05,16.69c0,1.93,0.47,3.69,1.42,5.29C133.22,49.18,134.48,50.46,136.04,51.42z"/>
	</g>
	<g>
		<path class="st1" d="M178.76,39.5h-5.95c-0.14,0-0.21,0.07-0.21,0.21v2.42c0,1.12-0.38,2.13-1.13,3.03
			c-0.75,0.89-1.69,1.34-2.82,1.34c-1.09,0-2.01-0.4-2.76-1.21c-0.75-0.81-1.13-1.86-1.13-3.16V25.71c0-1.12,0.33-2.11,1-2.97
			c0.67-0.86,1.63-1.29,2.9-1.29c1.12,0,2.06,0.42,2.82,1.26c0.75,0.84,1.13,1.84,1.13,3v2.42c0,0.14,0.07,0.21,0.21,0.21h5.9
			c0.14,0,0.21-0.07,0.21-0.21v-2.42c0-1.96-0.46-3.75-1.37-5.34c-0.91-1.6-2.14-2.87-3.68-3.82c-1.54-0.95-3.28-1.42-5.21-1.42
			c-1.93,0-3.68,0.48-5.24,1.45c-1.56,0.97-2.79,2.25-3.68,3.84c-0.9,1.6-1.34,3.36-1.34,5.29l-0.05,16.42c0,2,0.46,3.81,1.37,5.42
			c0.91,1.61,2.15,2.9,3.71,3.87c1.56,0.96,3.31,1.45,5.24,1.45c1.93,0,3.67-0.48,5.21-1.45c1.54-0.96,2.78-2.25,3.71-3.87
			c0.93-1.61,1.4-3.42,1.4-5.42v-2.42C178.97,39.57,178.9,39.5,178.76,39.5z"/>
		<path class="st1" d="M200.66,20.34c-0.93-1.58-2.17-2.84-3.71-3.79c-1.54-0.95-3.26-1.42-5.16-1.42c-1.86,0-3.58,0.47-5.16,1.42
			c-1.58,0.95-2.83,2.21-3.76,3.79c-0.93,1.58-1.39,3.33-1.39,5.26l-0.05,16.69c0,1.93,0.47,3.69,1.42,5.29
			c0.95,1.6,2.2,2.88,3.76,3.84c1.56,0.96,3.29,1.45,5.18,1.45c1.89,0,3.62-0.48,5.18-1.45c1.56-0.96,2.81-2.25,3.74-3.84
			c0.93-1.6,1.4-3.36,1.4-5.29l-0.05-16.69C202.06,23.67,201.59,21.92,200.66,20.34z M194.56,45.21c-0.79,0.86-1.71,1.29-2.76,1.29
			c-1.09,0-2.02-0.41-2.79-1.24c-0.77-0.82-1.16-1.82-1.16-2.97V25.6c0-1.19,0.39-2.18,1.16-2.97c0.77-0.79,1.7-1.18,2.79-1.18
			c1.12,0,2.05,0.4,2.79,1.21c0.74,0.81,1.11,1.79,1.11,2.95l0.05,16.69C195.74,43.38,195.35,44.35,194.56,45.21z"/>
		<path class="st1" d="M224.91,16.13c0-0.28-0.11-0.42-0.32-0.42h-5.21c-0.32,0-0.47,0.14-0.47,0.42l0.26,20.32l-8.9-20.74h-4.74
			c-0.28,0-0.42,0.14-0.42,0.42l0.05,35.84c0,0.25,0.14,0.37,0.42,0.37h5.26c0.32,0,0.47-0.14,0.47-0.42l-0.37-18.95l9.11,19.37
			h4.63c0.18,0,0.26-0.11,0.26-0.32L224.91,16.13z"/>
	</g>
</g>
</svg>
